<?xml version="1.0" standalone="no"?>
<!DOCTYPE svg PUBLIC "-//W3C//DTD SVG 20010904//EN"
 "http://www.w3.org/TR/2001/REC-SVG-20010904/DTD/svg10.dtd">
<svg version="1.0" xmlns="http://www.w3.org/2000/svg"
 width="256.000000pt" height="256.000000pt" viewBox="0 0 256.000000 256.000000"
 preserveAspectRatio="xMidYMid meet">
<metadata>
Created by potrace 1.11, written by Peter Selinger 2001-2013
</metadata>
<g transform="translate(0.000000,256.000000) scale(0.100000,-0.100000)"
fill="#000000" stroke="none">
<path d="M572 2338 c-8 -8 -12 -48 -12 -115 l0 -103 -182 0 c-161 0 -187 -2
-214 -19 -67 -41 -64 2 -64 -936 0 -953 -4 -897 73 -934 41 -18 72 -19 1117
-17 1019 1 1077 2 1103 19 16 10 37 32 47 50 19 31 20 57 20 880 0 940 3 895
-65 937 -29 18 -49 20 -214 20 l-181 0 0 109 c0 101 -1 109 -21 114 -28 7 -32
-7 -33 -124 l0 -99 -667 0 -667 0 2 98 c2 119 -10 152 -42 120z m-12 -337 c0
-68 0 -69 -35 -90 -79 -46 -79 -155 0 -207 74 -48 185 16 185 107 0 40 -36 95
-71 109 -25 11 -26 15 -26 81 l1 69 666 0 667 0 0 -69 c-1 -66 -2 -69 -32 -85
-88 -48 -85 -171 5 -215 40 -20 82 -19 116 4 81 53 76 171 -9 213 -25 12 -27
17 -27 83 l0 69 179 0 c161 0 181 -2 202 -19 l24 -19 1 -854 c0 -544 -3 -861
-10 -876 -5 -12 -21 -26 -35 -29 -34 -9 -2128 -9 -2163 0 -16 4 -29 17 -35 34
-12 35 -11 1713 1 1731 16 26 52 31 224 31 l172 1 0 -69z m66 -129 c38 -25 40
-103 4 -122 -30 -16 -75 -12 -94 9 -23 25 -23 76 -1 101 18 20 69 27 91 12z
m1393 -10 c28 -22 31 -75 6 -102 -21 -23 -72 -27 -100 -6 -27 20 -27 92 0 112
26 19 68 18 94 -4z"/>
<path d="M373 1493 c-19 -7 -16 -40 5 -45 9 -2 419 -4 911 -3 846 0 894 1 905
18 8 13 8 20 -2 26 -13 8 -1796 12 -1819 4z"/>
<path d="M391 1224 c-29 -24 -31 -30 -31 -99 0 -65 3 -75 26 -99 24 -23 34
-26 96 -26 63 0 72 3 98 28 25 26 28 36 29 96 0 62 -2 71 -29 97 -25 26 -35
29 -93 29 -56 0 -70 -4 -96 -26z m155 -37 c9 -9 11 -93 3 -115 -8 -22 -14 -23
-71 -20 l-63 3 -3 60 c-2 45 1 62 12 71 14 10 112 11 122 1z"/>
<path d="M1419 1221 c-26 -26 -29 -36 -29 -91 0 -104 24 -129 123 -130 63 0
71 3 98 29 26 27 29 36 29 96 0 60 -3 69 -29 96 -27 26 -36 29 -96 29 -60 0
-69 -3 -96 -29z m162 -42 c4 -7 7 -29 5 -49 -2 -19 -4 -45 -5 -57 -1 -21 -6
-23 -65 -23 -72 0 -73 1 -72 80 1 49 3 55 26 60 39 10 101 4 111 -11z"/>
<path d="M1954 1238 c-31 -15 -47 -51 -49 -111 -2 -57 15 -101 44 -117 11 -5
47 -10 81 -10 34 0 70 5 81 10 38 21 49 71 40 176 -1 6 -13 23 -27 38 -23 23
-35 26 -88 25 -33 0 -71 -5 -82 -11z m134 -47 c9 -1 12 -19 10 -68 l-3 -68
-65 0 -65 0 -3 64 c-2 36 1 67 7 71 9 5 70 6 119 1z"/>
<path d="M1052 1174 l-60 -66 -29 26 c-31 29 -58 34 -66 12 -7 -19 87 -108
105 -100 26 12 143 150 143 169 0 40 -33 25 -93 -41z"/>
<path d="M407 733 c-37 -19 -47 -43 -47 -113 0 -71 10 -94 48 -113 28 -15 110
-16 150 -3 30 10 49 51 51 111 2 59 -11 95 -42 114 -29 19 -128 21 -160 4z
m144 -63 c1 -11 2 -36 2 -55 0 -69 3 -66 -70 -63 l-68 3 -3 54 c-5 79 -2 81
73 81 58 0 65 -2 66 -20z"/>
<path d="M921 733 c-36 -18 -51 -58 -47 -128 4 -89 35 -113 140 -110 51 2 63
6 83 29 25 29 25 32 25 115 0 76 -28 103 -110 106 -37 1 -73 -4 -91 -12z m144
-113 l0 -65 -67 -3 -67 -3 -3 33 c-2 18 -1 50 1 71 l3 38 67 -3 66 -3 0 -65z"/>
<path d="M1441 734 c-40 -17 -51 -42 -51 -114 0 -97 24 -122 120 -125 98 -3
129 27 130 126 0 56 -4 70 -25 93 -13 14 -28 27 -32 27 -44 7 -118 3 -142 -7z
m144 -114 l0 -65 -64 -3 c-43 -2 -67 1 -72 9 -8 13 -9 108 -2 122 3 4 35 7 71
5 l67 -3 0 -65z"/>
<path d="M2104 675 c-33 -35 -62 -65 -65 -65 -3 0 -18 11 -33 25 -31 29 -54
32 -63 9 -6 -17 72 -104 93 -104 19 0 164 157 164 176 0 10 -21 24 -35 24 -1
0 -29 -29 -61 -65z"/>
</g>
</svg>
